<?xml version="1.0" encoding="utf-8"?>
<!-- Generator: Adobe Illustrator 24.3.0, SVG Export Plug-In . SVG Version: 6.00 Build 0)  -->
<svg version="1.1" id="Layer_1" xmlns="http://www.w3.org/2000/svg" xmlns:xlink="http://www.w3.org/1999/xlink" x="0px" y="0px"
	 viewBox="0 0 381 159.9" style="enable-background:new 0 0 381 159.9;" xml:space="preserve">
<style type="text/css">
	.st0{fill:#2A78EA;}
	.st1{fill:#FFFFFF;}
	.st2{enable-background:new    ;}
	.st3{fill:none;}
	.st4{fill:none;stroke:#FFFFFF;stroke-miterlimit:10;}
</style>
<path class="st0" d="M12.5,1.2H369c6.3,0,11.5,5.1,11.5,11.5v135c0,6.4-5.1,11.5-11.5,11.5H12.5c-6.3,0-11.5-5.1-11.5-11.5v-135
	C1,6.3,6.1,1.2,12.5,1.2z"/>
<path class="st1" d="M369,1.7c6.1,0,11,4.9,11,11v135c0,6.1-4.9,11-11,11H12c-6.1,0-11-4.9-11-11v-135c0-6.1,4.9-11,11-11H369
	 M369,0.7H12c-6.6,0-12,5.4-12,12v135c0,6.6,5.4,12,12,12h357c6.6,0,12-5.4,12-12v-135C381,6.1,375.6,0.7,369,0.7z"/>
<g class="st2">
	<path class="st1" d="M69,124.3c0,2.2-0.7,4.1-2.1,5.5c-1.4,1.4-3.2,2.1-5.4,2.1H34.6c-2.2,0-4.1-0.7-5.5-2.1
		c-1.4-1.4-2.2-3.2-2.2-5.5V97.2h9.5v26.3h23.1V98L30,62.3c-2.1-2.5-3.1-5.2-3.1-8.1V32.5c0-2.2,0.7-4.1,2.2-5.5
		c1.4-1.4,3.3-2.1,5.5-2.1h26.9c2.2,0,4,0.7,5.4,2.1c1.4,1.4,2.1,3.2,2.1,5.5v24.9h-9.5V33.3H36.4v22.6l29.7,35.7c2,2.4,2.9,5,2.9,8
		V124.3z"/>
	<path class="st1" d="M135.4,80.2h-7.9v51.7H92.9c-2.2,0-4-0.7-5.4-2.1c-1.4-1.4-2.1-3.2-2.1-5.5V87.9c0-3.1,1.2-5.3,3.5-6.8l8-5.2
		c-2.5-1.5-5-3-7.5-4.5c-2.5-2-3.8-4.3-3.8-7.1V32.5c0-2.2,0.7-4.1,2.1-5.5c1.4-1.4,3.2-2.1,5.4-2.1h27.1c2.2,0,4.1,0.7,5.5,2.1
		c1.4,1.4,2.2,3.2,2.2,5.5v22.4h-9.5V33.3H95v32.2l9.6,6.4h30.7V80.2z M118.2,123.5V80.2h-13.6l-9.8,6.3v37H118.2z"/>
	<path class="st1" d="M184.4,124.3c0,2.2-0.7,4.1-2.1,5.5c-1.4,1.4-3.2,2.1-5.5,2.1h-24.9c-2.2,0-4.1-0.7-5.5-2.1
		c-1.4-1.4-2.1-3.2-2.1-5.5V97.2h9.5v26.3h21.1V24.9h9.5V124.3z"/>
</g>
<line class="st3" x1="195" y1="132" x2="195" y2="25"/>
<line class="st4" x1="207.5" y1="25" x2="207.5" y2="132"/>
<g class="st2">
	<path class="st1" d="M238.2,88.3c0,1.8-0.9,2.6-2.6,2.6h-7.4c-1.8,0-2.6-0.9-2.6-2.6V70.8c0-1.8,0.9-2.6,2.6-2.6h7.4
		c1.8,0,2.6,0.9,2.6,2.6v4.5h-3.1v-4.5h-6.5v17.3h6.5v-5.1h3.1V88.3z"/>
	<path class="st1" d="M246.5,90.9h-3.1V54.2h3.1V90.9z"/>
	<path class="st1" d="M264.5,88.3c0,1.8-0.9,2.6-2.6,2.6h-7.5c-1.8,0-2.6-0.9-2.6-2.6V70.8c0-1.8,0.9-2.6,2.6-2.6h7.5
		c1.8,0,2.6,0.9,2.6,2.6V79l-1.1,1.1h-8.7v8.2h6.7v-4.2h3V88.3z M261.5,77.6v-6.9h-6.7v6.9H261.5z"/>
	<path class="st1" d="M282.6,90.9h-3.1v-0.6c-1.2,0.2-2.5,0.3-3.7,0.5c-1.5,0.2-2.8,0.3-3.7,0.3c-1.7,0-2.6-0.8-2.6-2.5v-8.3
		c0-1.8,0.9-2.6,2.6-2.6h7.3v-6.9h-6.7v3.9h-3v-3.8c0-1.8,0.9-2.6,2.6-2.6h7.5c1.8,0,2.6,0.9,2.6,2.6V90.9z M279.5,88.1V80h-7v8.2
		L279.5,88.1z"/>
	<path class="st1" d="M300.8,90.9h-3.1v-20l-6.9,0.2v19.8h-3.1V68.1h3.1v0.6c1.2-0.2,2.4-0.3,3.7-0.5c1.5-0.2,2.7-0.3,3.7-0.3
		c1.7,0,2.6,0.9,2.6,2.6V90.9z"/>
	<path class="st1" d="M309.1,63.1H306v-3.9h3.2V63.1z M309.1,90.9H306V68.1h3.1V90.9z"/>
	<path class="st1" d="M327.5,90.9h-3.1v-20l-6.9,0.2v19.8h-3.1V68.1h3.1v0.6c1.2-0.2,2.4-0.3,3.7-0.5c1.5-0.2,2.7-0.3,3.7-0.3
		c1.7,0,2.6,0.9,2.6,2.6V90.9z"/>
	<path class="st1" d="M345.5,96.9c0,1.8-0.9,2.6-2.6,2.6h-7.4c-1.8,0-2.7-1.1-2.7-3.4c0-0.3,0-0.7,0-1.2s0-0.9,0-1.1h3.1v3h6.5v-6
		h-5.1c-1.4,0-2.5-0.5-3.5-1.4s-1.4-2.1-1.4-3.5V72.7c0-1.3,0.4-2.5,1.2-3.4s1.9-1.3,3.2-1.3c0.4,0,2.2,0.3,5.6,0.8v-0.6h3.1V96.9z
		 M342.4,88.2V71c-2.5-0.2-3.9-0.2-4.3-0.2c-1.7,0-2.6,0.9-2.6,2.6v12.2c0,1.8,0.9,2.6,2.6,2.6H342.4z"/>
</g>
<g class="st2">
	<path class="st1" d="M238.2,130.3c0,1.8-0.9,2.6-2.6,2.6h-7.4c-1.8,0-2.6-0.9-2.6-2.6v-17.5c0-1.8,0.9-2.6,2.6-2.6h7.4
		c1.8,0,2.6,0.9,2.6,2.6v4.5h-3.1v-4.5h-6.5v17.3h6.5v-5.1h3.1V130.3z"/>
	<path class="st1" d="M256.3,130.3c0,1.8-0.9,2.6-2.6,2.6h-7.8c-1.8,0-2.6-0.9-2.6-2.6v-17.5c0-1.8,0.9-2.6,2.6-2.6h7.8
		c1.8,0,2.6,0.9,2.6,2.6V130.3z M253.2,130.2v-17.3h-6.9v17.3H253.2z"/>
	<path class="st1" d="M284.3,132.9h-3.1v-20l-6.8,0.2v19.8h-3.1v-20l-6.8,0.2v19.8h-3.1v-22.8h3.1v0.6c1.2-0.2,2.4-0.3,3.7-0.5
		c1.5-0.2,2.7-0.3,3.7-0.3c1,0,1.7,0.3,2.1,0.9c1.3-0.2,2.6-0.4,3.9-0.5c1.7-0.2,3-0.3,3.9-0.3c1.7,0,2.6,0.9,2.6,2.6V132.9z"/>
	<path class="st1" d="M302.5,128c0,1.4-0.5,2.6-1.4,3.5s-2.1,1.4-3.5,1.4h-5.1v8.6h-3.1v-31.5h3.1v0.6c1.2-0.2,2.5-0.3,3.7-0.5
		c1.6-0.2,2.8-0.3,3.7-0.3c1.7,0,2.6,0.9,2.6,2.6V128z M299.4,127.6v-14.6l-6.9,0.2v17.1h4.3C298.5,130.2,299.4,129.3,299.4,127.6z"
		/>
	<path class="st1" d="M320.4,132.9h-3.1v-0.6c-1.2,0.2-2.5,0.3-3.7,0.5c-1.5,0.2-2.8,0.3-3.7,0.3c-1.7,0-2.6-0.8-2.6-2.5v-8.3
		c0-1.8,0.9-2.6,2.6-2.6h7.3v-6.9h-6.7v3.9h-3v-3.8c0-1.8,0.9-2.6,2.6-2.6h7.5c1.8,0,2.6,0.9,2.6,2.6V132.9z M317.3,130.1V122h-7
		v8.2L317.3,130.1z"/>
	<path class="st1" d="M338.6,132.9h-3.1v-20l-6.9,0.2v19.8h-3.1v-22.8h3.1v0.6c1.2-0.2,2.4-0.3,3.7-0.5c1.5-0.2,2.7-0.3,3.7-0.3
		c1.7,0,2.6,0.9,2.6,2.6V132.9z"/>
	<path class="st1" d="M356.5,110.1l-5.5,22.6l-2.3,8.8h-3.1l2.3-8.8l-5.6-22.6h3.2l3.9,18l3.9-18H356.5z"/>
</g>
</svg>
